<svg width="22" height="22" viewBox="0 0 22 22" fill="none" xmlns="http://www.w3.org/2000/svg">
<path d="M15.9305 0H6.06953C2.71746 0 0 2.71746 0 6.06953V15.9305C0 19.2825 2.71746 22 6.06953 22H15.9305C19.2825 22 22 19.2825 22 15.9305V6.06953C22 2.71746 19.2825 0 15.9305 0ZM20.0473 15.9305C20.0473 18.2086 18.1923 20.0473 15.9305 20.0473H6.06953C3.79142 20.0473 1.95266 18.1923 1.95266 15.9305V6.06953C1.95266 3.80769 3.80769 1.95266 6.06953 1.95266H15.9305C18.2086 1.95266 20.0473 3.80769 20.0473 6.06953V15.9305Z" fill="black"/>
</svg>
